<svg xmlns="http://www.w3.org/2000/svg" height="48" viewBox="0 -960 960 960" width="48"><path d="m437-410.5 145.902-93.949q8.598-5.48 8.598-15.48T583-536.5l-146-94q-10.5-6.5-20.25-.304Q407-624.609 407-613.5v186q0 11.913 9.75 18.207Q426.5-403 437-410.5ZM186-252q-22.244 0-38.122-15.878T132-305.772v-428.456q0-22.016 15.878-37.894T185.78-788h588.44q22.024 0 37.902 15.878T828-734.228v428.456q0 22.016-15.878 37.894T774-252H585v52.5q0 12.225-7.713 19.863Q569.575-172 558.5-172h-156q-12.225 0-19.862-7.637Q375-187.275 375-199.5V-252H186Zm0-22h588q12 0 22-10t10-22v-428q0-12-10-22t-22-10H186q-12 0-22 10t-10 22v428q0 12 10 22t22 10Zm-32 0v-492 492Z"/></svg>