<?xml version="1.0" encoding="UTF-8" standalone="no"?>
<!-- Created with Inkscape (http://www.inkscape.org/) -->

<svg
   width="841mm"
   height="1189mm"
   viewBox="0 0 841 1189"
   version="1.1"
   id="svg5"
   inkscape:version="1.2.2 (b0a8486541, 2022-12-01)"
   sodipodi:docname="Poster.svg"
   xml:space="preserve"
   inkscape:export-filename="Poster.pdf"
   inkscape:export-xdpi="600"
   inkscape:export-ydpi="600"
   xmlns:inkscape="http://www.inkscape.org/namespaces/inkscape"
   xmlns:sodipodi="http://sodipodi.sourceforge.net/DTD/sodipodi-0.dtd"
   xmlns:xlink="http://www.w3.org/1999/xlink"
   xmlns="http://www.w3.org/2000/svg"
   xmlns:svg="http://www.w3.org/2000/svg"><sodipodi:namedview
     id="namedview7"
     pagecolor="#ffffff"
     bordercolor="#000000"
     borderopacity="0.25"
     inkscape:showpageshadow="2"
     inkscape:pageopacity="0.0"
     inkscape:pagecheckerboard="0"
     inkscape:deskcolor="#d1d1d1"
     inkscape:document-units="mm"
     showgrid="false"
     inkscape:zoom="0.35355339"
     inkscape:cx="1820.0928"
     inkscape:cy="2651.6504"
     inkscape:window-width="2560"
     inkscape:window-height="1361"
     inkscape:window-x="2391"
     inkscape:window-y="-9"
     inkscape:window-maximized="1"
     inkscape:current-layer="layer7" /><defs
     id="defs2"><rect
       x="422"
       y="856"
       width="2334.4853"
       height="485.08831"
       id="rect2462" /><linearGradient
       inkscape:collect="always"
       id="linearGradient1496"><stop
         style="stop-color:#bb442a;stop-opacity:1;"
         offset="0.25092253"
         id="stop1492" /><stop
         style="stop-color:#e53009;stop-opacity:0.8509804;"
         offset="0.7490775"
         id="stop1494" /></linearGradient><rect
       x="1470"
       y="4202"
       width="953.99999"
       height="194"
       id="rect1294" /><rect
       x="519.37112"
       y="315.33247"
       width="2405.9947"
       height="192.36949"
       id="rect1000" /><style
       id="style1093">.cls-1{fill:#1d1d1c;}.cls-2{fill:#1a9cd8;}</style><rect
       x="519.37109"
       y="315.33246"
       width="475.80907"
       height="166.36949"
       id="rect1000-7" /><rect
       x="519.37109"
       y="315.33246"
       width="1000.2656"
       height="80.202967"
       id="rect1000-9" /><linearGradient
       inkscape:collect="always"
       xlink:href="#linearGradient1496"
       id="linearGradient1498"
       x1="250"
       y1="1144"
       x2="841"
       y2="1144"
       gradientUnits="userSpaceOnUse"
       gradientTransform="matrix(1.423012,0,0,1,-355.75299,0)" /></defs><g
     inkscape:label="Ebene 1"
     inkscape:groupmode="layer"
     id="layer1"><rect
       style="font-variation-settings:'wght' 400;fill:#ffffff;stroke-width:25.1805;fill-opacity:1"
       id="rect350"
       width="841"
       height="1189"
       x="0"
       y="0"
       inkscape:label="Background" /><g
       inkscape:groupmode="layer"
       id="layer3"
       inkscape:label="Footer"><rect
         style="font-variation-settings:'wdth' 90, 'wght' 700;display:inline;fill:url(#linearGradient1498);fill-opacity:1;stroke:none;stroke-width:3.1792;stroke-opacity:1"
         id="rect5995-1"
         width="841"
         height="90"
         x="1.110223e-16"
         y="1099"
         inkscape:label="Background_gradient" /><rect
         style="font-variation-settings:'wght' 400;opacity:1;fill:#ffffff;fill-opacity:1;stroke-width:1.05733;stroke-dasharray:none"
         id="rect1124"
         width="2"
         height="60"
         x="250"
         y="1115"
         inkscape:label="line_2" /><rect
         style="font-variation-settings:'wght' 400;opacity:1;fill:#ffffff;fill-opacity:1;stroke-width:1.05733;stroke-dasharray:none"
         id="rect1124-5"
         width="2"
         height="60"
         x="544.04169"
         y="1115"
         inkscape:label="line_1" /><g
         inkscape:groupmode="layer"
         id="layer4"
         inkscape:label="Team"><text
           xml:space="preserve"
           style="font-style:normal;font-variant:normal;font-weight:normal;font-stretch:normal;font-size:11.2889px;font-family:'Source Sans 3';-inkscape-font-specification:'Source Sans 3, @wght=400';font-variant-ligatures:normal;font-variant-caps:normal;font-variant-numeric:normal;font-variant-east-asian:normal;font-variation-settings:'wght' 400;text-align:center;text-anchor:middle;white-space:pre;inline-size:81.556;display:inline;opacity:1;fill:#ffffff;fill-opacity:1;stroke-width:3;stroke-dasharray:none"
           x="459.82111"
           y="1118.5322"
           id="text1743-2"
           transform="translate(0.52239497,8.6802021)"
           inkscape:label="team_2"><tspan
             x="459.82111"
             y="1118.5322"
             id="tspan694">Luca Noack
</tspan><tspan
             x="459.82111"
             y="1132.6434"
             id="tspan696">Luca Franke
</tspan><tspan
             x="459.82111"
             y="1146.7544"
             id="tspan698">Chrisoph Neidahl
</tspan><tspan
             x="459.82111"
             y="1160.8655"
             id="tspan700">Amine Jegani</tspan></text><text
           xml:space="preserve"
           style="font-style:normal;font-variant:normal;font-weight:normal;font-stretch:normal;font-size:11.2889px;font-family:'Source Sans 3';-inkscape-font-specification:'Source Sans 3, @wght=400';font-variant-ligatures:normal;font-variant-caps:normal;font-variant-numeric:normal;font-variant-east-asian:normal;font-variation-settings:'wght' 400;text-align:center;text-anchor:middle;white-space:pre;inline-size:94.4977;display:inline;opacity:1;fill:#ffffff;fill-opacity:1;stroke-width:3;stroke-dasharray:none"
           x="335.34006"
           y="1119.7289"
           id="text1743-8"
           transform="translate(-5.0519208,7.4835468)"
           inkscape:label="team_1"><tspan
             x="335.34006"
             y="1119.7289"
             id="tspan702">Benedikt Beigang
</tspan><tspan
             x="335.34006"
             y="1133.84"
             id="tspan704">Finn Romeis
</tspan><tspan
             x="335.34006"
             y="1147.9511"
             id="tspan706">Chantal Bley
</tspan><tspan
             x="335.34006"
             y="1162.0622"
             id="tspan708">Pascal Dittes</tspan></text></g><g
         inkscape:groupmode="layer"
         id="layer5"
         inkscape:label="Grundig"><text
           xml:space="preserve"
           style="font-style:normal;font-variant:normal;font-weight:normal;font-stretch:normal;font-size:11.2889px;font-family:'Source Sans 3';-inkscape-font-specification:'Source Sans 3, @wght=400';font-variant-ligatures:normal;font-variant-caps:normal;font-variant-numeric:normal;font-variant-east-asian:normal;font-variation-settings:'wght' 400;text-align:center;text-anchor:middle;white-space:pre;inline-size:94.4977;display:inline;opacity:1;fill:#ffffff;fill-opacity:1;stroke-width:3;stroke-dasharray:none"
           x="335.34006"
           y="1119.7289"
           id="text1743"
           transform="translate(-211.60934,54.843963)"
           inkscape:label="Kunde"><tspan
             x="335.34006"
             y="1119.7289"
             id="tspan710">Philipp Platis</tspan></text><path
           fill-rule="evenodd"
           d="m 240.04525,253.09921 v 2.35214 h -4.90538 c -2.45269,0.0609 -3.87615,1.54782 -3.79413,3.29936 0.14553,2.94746 2.02142,3.25702 5.55625,3.11414 v -3.81529 h 4.37092 v 6.06161 h -9.04081 c -2.38125,-0.18521 -3.81265,-1.01071 -4.82336,-2.74109 a 5.508625,5.508625 0 0 1 0.14288,-5.75468 c 1.21708,-1.77271 3.21733,-2.51619 5.29167,-2.51619 2.39977,0.0212 7.20196,0 7.20196,0 z m -29.25234,2.22779 c 0,0 2.68023,0.0423 2.82311,3.11415 0.0635,1.44462 -0.92605,3.21733 -2.9898,3.27818 H 208.1947 V 255.327 Z m -46.87887,0.15346 c 0.98954,0.0212 1.25677,0.8255 1.15358,1.23825 0.0608,0.49477 -0.45508,1.17475 -1.17475,1.2356 h -3.175 v -2.47385 z m 60.75362,-2.38125 v 11.01196 h -4.49792 l 0.0238,-11.01196 z m -11.97769,0.0212 c 2.3495,0.0609 5.64621,1.38113 5.66738,5.29167 0.0212,4.49792 -3.96875,5.6515 -5.91608,5.69119 h -8.65717 l 0.0291,-10.98286 z m -14.6976,-0.0212 c 1.15358,0.0635 2.26748,0.52916 2.78342,1.5875 a 3.6142083,3.6142083 0 0 1 0.47625,1.81504 v 7.60942 h -4.43707 v -7.75494 c -0.22489,-0.9869 -1.54516,-0.87577 -1.54516,-0.87577 h -2.92894 l 0.0212,8.62012 h -4.41061 v -11.00137 z m -21.60588,0 v 7.38187 c -0.0635,0.94986 0.43128,1.42611 1.4023,1.32292 h 3.13266 v -8.70479 h 4.32859 v 11.01196 h -10.24467 a 3.0876875,3.0876875 0 0 1 -2.59821,-1.69069 c -0.72231,-1.19592 -0.47625,-2.55588 -0.52917,-3.91848 v -5.40279 z m -10.05416,0 a 3.4395833,3.4395833 0 0 1 2.94746,1.89706 3.5771667,3.5771667 0 0 1 -0.09,3.3946 2.6458333,2.6458333 0 0 1 -1.15359,1.05834 c 1.09273,0.72231 2.43417,4.65931 2.43417,4.65931 h -4.51644 c 0,0 -1.13506,-2.91042 -1.75154,-3.4634 -0.5371,-0.49212 -3.51631,-0.32808 -3.51631,-0.32808 v 3.79413 h -4.49792 v -11.01196 z m -13.96471,0 v 2.35214 h -4.91067 c -2.45268,0.0609 -3.87614,1.54782 -3.79412,3.29936 0.14552,2.94746 2.02141,3.25702 5.55625,3.11414 v -3.81529 h 4.38679 v 6.06161 h -9.05933 c -2.38125,-0.18521 -3.81265,-1.01071 -4.82336,-2.74109 a 5.508625,5.508625 0 0 1 0.15346,-5.75468 c 1.21444,-1.77271 3.21469,-2.51619 5.29696,-2.51619 2.39183,0.0212 7.19402,0 7.19402,0 z m 24.07708,22.38375 h 3.54013 c 1.2991,0 1.89441,-0.87313 1.89441,-1.73038 0,-0.85725 -0.4445,-1.32291 -1.13241,-1.47637 v -0.0159 a 1.2303125,1.2303125 0 0 0 0.87048,-1.26736 c 0,-0.93927 -0.56886,-1.50018 -1.85209,-1.50018 h -3.32845 z m 0.88636,-3.51631 v -1.70392 h 2.38125 c 0.73025,0 1.02129,0.32015 1.02129,0.86519 0,0.47889 -0.3175,0.83873 -0.97102,0.83873 z m 0,2.74373 v -1.97115 h 2.48443 c 0.90488,0 1.17475,0.48419 1.17475,0.95515 0,0.51329 -0.26458,1.016 -1.25147,1.016 z m 10.25789,0.77258 h -0.83873 v -0.66411 h -0.0185 a 1.9605625,1.9605625 0 0 1 -1.71714,0.81228 c -1.05834,0 -1.85209,-0.45244 -1.85209,-1.55046 v -2.98979 h 0.83873 v 2.8231 c 0,0.64558 0.40217,1.01335 1.29911,1.01335 0.76464,0 1.44462,-0.4445 1.44462,-1.30704 v -2.52941 h 0.83873 z m 1.93675,-1.38642 c 0,0.39688 0.32015,0.88106 1.38642,0.88106 1.06627,0 1.34144,-0.3757 1.34144,-0.68791 0,-0.31221 -0.15875,-0.49477 -0.83079,-0.58738 l -1.38378,-0.18521 c -0.6297,-0.082 -1.19062,-0.48418 -1.19062,-1.16416 0,-0.889 0.76994,-1.41817 2.00554,-1.41817 1.44198,0 2.07169,0.62177 2.14577,1.47638 h -0.82814 c -0.0265,-0.4445 -0.4445,-0.82286 -1.32292,-0.82286 -0.52917,0 -1.15623,0.15081 -1.15623,0.67204 0,0.29369 0.13229,0.46038 0.73025,0.54505 l 1.19063,0.15875 c 1.10595,0.15081 1.53458,0.54768 1.53458,1.16681 0,1.02394 -0.86519,1.50019 -2.20663,1.50019 -1.00541,0 -2.15635,-0.26459 -2.24895,-1.53459 z m 4.72282,1.38642 h 0.83343 v -4.39208 h -0.83873 z m 0,-5.11969 h 0.83343 v -0.92339 h -0.83873 z m 2.19075,0.72761 h 0.83872 v 0.66145 h 0.0185 a 1.9685,1.9685 0 0 1 1.7198,-0.81227 c 1.05833,0 1.85208,0.45244 1.85208,1.55046 v 2.99244 h -0.83873 v -2.8284 c 0,-0.64558 -0.40217,-1.016 -1.2991,-1.016 -0.76465,0 -1.44463,0.4445 -1.44463,1.32292 v 2.52148 h -0.83873 z m 10.51718,2.45004 v -0.10848 c 0,-1.82034 -1.22502,-2.49238 -2.38125,-2.49238 -1.71185,0 -2.55058,1.08215 -2.55058,2.3495 0,1.26736 0.83873,2.34686 2.55058,2.34686 a 2.38125,2.38125 0 0 0 2.26484,-1.48432 h -0.889 c -0.28575,0.62178 -0.93927,0.79375 -1.41817,0.79375 a 1.55575,1.55575 0 0 1 -1.61925,-1.3917 z m -4.01637,-0.66146 c 0.127,-0.79375 0.82021,-1.2409 1.5875,-1.2409 0.76729,0 1.41023,0.4445 1.53458,1.2409 z m 5.79437,1.21708 c 0,0.39688 0.32015,0.88106 1.38377,0.88106 1.06363,0 1.34144,-0.3757 1.34144,-0.68791 0,-0.31221 -0.1561,-0.49477 -0.82814,-0.58738 l -1.38378,-0.18521 c -0.6297,-0.082 -1.19062,-0.48418 -1.19062,-1.16416 0,-0.889 0.76994,-1.41817 2.00554,-1.41817 1.44198,0 2.07169,0.62177 2.14577,1.47638 h -0.83873 c -0.0265,-0.4445 -0.4445,-0.82286 -1.32291,-0.82286 -0.52917,0 -1.15888,0.15081 -1.15888,0.67204 0,0.29369 0.13494,0.46038 0.7329,0.54505 l 1.18798,0.15875 c 1.1086,0.15081 1.53723,0.54768 1.53723,1.16681 0,1.02394 -0.86519,1.50019 -2.20663,1.50019 -1.00542,0 -2.15635,-0.26459 -2.24896,-1.53459 z m 5.31019,0 c 0,0.39688 0.3175,0.88106 1.38377,0.88106 1.06627,0 1.34144,-0.3757 1.34144,-0.68791 0,-0.31221 -0.15875,-0.49477 -0.83079,-0.58738 l -1.38377,-0.18521 c -0.62971,-0.082 -1.19063,-0.48418 -1.19063,-1.16416 0,-0.889 0.76994,-1.41817 2.00554,-1.41817 1.44198,0 2.07169,0.62177 2.14577,1.47638 h -0.83873 c -0.0238,-0.4445 -0.4445,-0.82286 -1.32291,-0.82286 -0.52917,0 -1.15623,0.15081 -1.15623,0.67204 0,0.29369 0.13494,0.46038 0.73025,0.54505 l 1.19062,0.15875 c 1.10861,0.15081 1.53459,0.54768 1.53459,1.16681 0,1.02394 -0.86254,1.50019 -2.20663,1.50019 -1.00541,0 -2.15635,-0.26459 -2.24896,-1.53459 z m 8.36877,-0.58473 c 0.0159,1.05834 1.02394,1.34938 1.92881,1.34938 0.94721,0 1.61925,-0.36248 1.61925,-1.016 0,-0.54504 -0.42862,-0.77259 -1.11654,-0.889 l -1.35731,-0.2249 c -0.71438,-0.11906 -1.778,-0.40481 -1.778,-1.56898 0,-1.09273 0.86254,-1.82033 2.39712,-1.82033 1.20121,0 2.46857,0.43392 2.55059,1.87854 h -0.88371 c -0.0767,-0.47096 -0.34396,-1.1086 -1.778,-1.1086 -0.65352,0 -1.39171,0.26458 -1.39171,0.9816 0,0.37042 0.24342,0.66411 0.97896,0.79375 l 1.47108,0.26458 c 0.46832,0.0847 1.80182,0.31221 1.80182,1.53459 0,1.52929 -1.3679,1.96321 -2.5744,1.96321 -1.35202,0 -2.75167,-0.46832 -2.75167,-2.11667 z m 8.82386,-2.42093 h 0.93927 l -2.29923,5.15143 c -0.41804,0.93134 -0.74613,1.09009 -1.524,1.09009 -0.21167,0 -0.42069,-0.0159 -0.63765,-0.0344 v -0.70909 c 0.15081,0 0.28311,0.0344 0.48419,0.0344 0.52917,0 0.64558,-0.10848 0.91546,-0.67204 l 0.19314,-0.40217 -2.032,-4.45823 h 0.96573 l 1.50019,3.46869 z m 2.33097,3.01095 c 0,0.39688 0.32015,0.88107 1.38378,0.88107 1.06362,0 1.34143,-0.37571 1.34143,-0.68792 0,-0.31221 -0.15875,-0.49477 -0.82814,-0.58738 l -1.38642,-0.1852 c -0.62706,-0.082 -1.19062,-0.48419 -1.19062,-1.16417 0,-0.889 0.77258,-1.41817 2.00554,-1.41817 1.44198,0 2.07168,0.62177 2.14841,1.47638 h -0.83873 c -0.0265,-0.4445 -0.4445,-0.82286 -1.32291,-0.82286 -0.52917,0 -1.15888,0.15082 -1.15888,0.67205 0,0.29368 0.13494,0.46037 0.73025,0.54504 l 1.19063,0.15875 c 1.1086,0.15081 1.53723,0.54768 1.53723,1.16681 0,1.02394 -0.86519,1.50019 -2.20663,1.50019 -1.00806,0 -2.15635,-0.26459 -2.24896,-1.53459 z m 5.09059,-4.36827 h 0.83873 v 1.35732 h 1.25677 v 0.65352 h -1.25677 v 2.70404 c 0,0.35454 0.25135,0.47889 0.67733,0.47889 a 3.3099375,3.3099375 0 0 0 0.57944,-0.0582 v 0.70379 a 5.4715833,5.4715833 0 0 1 -0.93927,0.0582 c -0.82021,0 -1.15623,-0.40216 -1.15623,-1.03981 v -2.85221 h -0.90752 v -0.64823 h 0.90752 z m 7.80786,3.80207 v -0.10848 c 0,-1.82034 -1.22503,-2.49238 -2.38125,-2.49238 -1.71186,0 -2.55059,1.08215 -2.55059,2.3495 0,1.26736 0.83873,2.34686 2.55059,2.34686 a 2.38125,2.38125 0 0 0 2.26483,-1.48432 h -0.889 c -0.28575,0.62177 -0.94192,0.79375 -1.42081,0.79375 a 1.5531042,1.5531042 0 0 1 -1.61661,-1.39171 z m -4.02432,-0.65617 c 0.127,-0.79375 0.82286,-1.2409 1.5875,-1.2409 a 1.4499167,1.4499167 0 0 1 1.53723,1.2409 z m 11.90625,-0.20108 c 0,-0.79375 -0.51329,-1.05834 -1.05833,-1.05834 -0.762,0 -1.44198,0.36248 -1.44198,1.18269 v 2.68023 h -0.83873 v -2.80458 c 0,-0.79375 -0.51329,-1.05834 -1.05833,-1.05834 -0.76465,0 -1.44463,0.4445 -1.44463,1.32292 v 2.54 h -0.83873 v -4.39208 h 0.83873 v 0.66145 h 0.0159 a 1.9685,1.9685 0 0 1 1.71979,-0.81227 1.6906875,1.6906875 0 0 1 1.4949,0.81227 2.1166667,2.1166667 0 0 1 1.778,-0.81227 c 0.4445,0 1.66952,0.20902 1.66952,1.55046 v 2.99244 h -0.83609 z m 2.78077,1.41022 c 0,0.39688 0.3175,0.88107 1.38377,0.88107 1.06628,0 1.34144,-0.37571 1.34144,-0.68792 0,-0.31221 -0.15875,-0.49477 -0.83079,-0.58737 l -1.38377,-0.18521 c -0.62971,-0.082 -1.19063,-0.48419 -1.19063,-1.16417 0,-0.889 0.77259,-1.41817 2.00555,-1.41817 1.44198,0 2.07168,0.62177 2.14577,1.47638 H 259.762 c -0.0238,-0.4445 -0.4445,-0.82286 -1.32292,-0.82286 -0.52917,0 -1.15887,0.15082 -1.15887,0.67205 0,0.29368 0.13493,0.46037 0.73025,0.54504 l 1.19062,0.15875 c 1.10861,0.15081 1.53458,0.54769 1.53458,1.16681 0,1.02394 -0.86254,1.50019 -2.20397,1.50019 -1.00807,0 -2.15636,-0.26459 -2.24896,-1.53459 z"
           id="path4908"
           style="fill:#ffffff;fill-opacity:1;stroke-width:0.264583"
           inkscape:label="Logo"
           transform="matrix(1.4385503,0,0,1.4385503,-166.58202,754.53621)" /></g><text
         xml:space="preserve"
         transform="matrix(0.26458333,0,0,0.26458333,183.63641,11.641666)"
         id="text1292"
         style="font-style:normal;font-variant:normal;font-weight:normal;font-stretch:normal;font-size:42.6667px;font-family:'Source Sans 3';-inkscape-font-specification:'Source Sans 3, @wght=400';font-variant-ligatures:normal;font-variant-caps:normal;font-variant-numeric:normal;font-variant-east-asian:normal;font-variation-settings:'wght' 400;white-space:pre;shape-inside:url(#rect1294);display:inline;opacity:1;fill:#ffffff;fill-opacity:1;stroke-width:11.3386;stroke-dasharray:none"
         inkscape:label="Modulbeschreibung"><tspan
           x="1470"
           y="4238.015"
           id="tspan712">Softwareprojekt I + Projektmanagementpraktikum I 
</tspan><tspan
           x="1470"
           y="4291.3485"
           id="tspan714">Sommersemester 2023 
</tspan><tspan
           x="1470"
           y="4344.682"
           id="tspan716">Dozenten: Prof. Dr. Andreas Both, Tobias Höppner</tspan></text><text
         xml:space="preserve"
         transform="matrix(0.2645579,0,0,0.26458333,-125.68757,990.58042)"
         id="text998-9"
         style="font-style:normal;font-variant:normal;font-weight:normal;font-stretch:normal;font-size:64.0031px;font-family:'Source Sans 3';-inkscape-font-specification:'Source Sans 3, @wght=400';font-variant-ligatures:normal;font-variant-caps:normal;font-variant-numeric:normal;font-variant-east-asian:normal;font-variation-settings:'wght' 400;white-space:pre;shape-inside:url(#rect1000-9);display:inline;opacity:0.85;fill:#000001;fill-opacity:1;stroke-width:4.53543"
         inkscape:label="Danksagung"><tspan
           x="519.37109"
           y="369.35712"
           id="tspan718">Wir danken allen Beteiligten:</tspan></text></g><g
       inkscape:groupmode="layer"
       id="layer6"
       inkscape:label="Header"><g
         inkscape:groupmode="layer"
         id="layer7"
         inkscape:label="Titel_Box"><text
           xml:space="preserve"
           id="text2460"
           style="font-style:normal;font-variant:normal;font-weight:normal;font-stretch:normal;font-size:64px;font-family:'Source Sans 3';-inkscape-font-specification:'Source Sans 3, @wght=400';font-variant-ligatures:normal;font-variant-caps:normal;font-variant-numeric:normal;font-variant-east-asian:normal;font-variation-settings:'wght' 400;text-align:start;white-space:pre;shape-inside:url(#rect2462);display:inline;opacity:1;fill:#000000;fill-opacity:1;stroke-width:11.3386;stroke-dasharray:none"
           transform="matrix(0.26458333,0,0,0.26458333,0,-9.0866237)"
           inkscape:label="Abstract"
           x="-1171.2772"
           y="0"><tspan
             x="422"
             y="910.02247"
             id="tspan722"><tspan
               dx="0 0 0 0 0 0 0 0 0 0 0 0 0 0 0 0 0 0 0 0 0 0 0 0 0 0 0 0 0 0 0 0 0 0 0 0 0 0 0 0 0 0 0 0 0 0 0 0 0 0 0 0 0 0 0 0 0 0 0 0 0 0 0 0 0 0 0 0 0 0 0 0 0 0 0.00012207031 -0.00012207031 -0.00012207031"
               id="tspan720">Mit der von unseren Entwicklern erdachten Software, möchten wir ein Werkzeug </tspan></tspan><tspan
             x="422"
             y="990.02247"
             id="tspan726">schaffen, <tspan
   dx="0 0 0 0 0 0 0 0 0 0 0 0 0 0 0 0 0 0 0 0 0 0 0 0 0 0 0 0 0 0 0 0 0 0 0 0 0 0 0 0 0 0 0 0 0 0 0 0 0 0 0 0 0 0 0 0 0 0 0 0 0 0 0 0 0 0 0 0 0 -0.00012207031 0 -0.00012207031"
   id="tspan724">dass das Korrigieren von Live-Untertitelung, so einfach wie möglich macht. </tspan></tspan><tspan
             x="422"
             y="1070.0225"
             id="tspan728">Dabei ließt unsere Software einen beliebigen Videostream ein, erstellt eine </tspan><tspan
             x="422"
             y="1150.0225"
             id="tspan732">Untertitelung mit dem <tspan
   dx="0 0 0 0 0 0 0 0 0 0 0 0 0 0 0 0 0 0 0 0 0 0 0 0 0 0 0 0 0 0 0 0 0 0 0 0 0 0 0 0 0 0 0 0 0 0 0 0 0 0 0 0 0 0 -0.00012207031 0 -0.00012207031 -0.00012207031 0.00012207031 -0.00012207031 -0.00012207031 0 0.00012207031"
   id="tspan730">Transkriptions-Tool Speechmatics, bietet die Transkription dem </tspan></tspan><tspan
             x="422"
             y="1230.0225"
             id="tspan736">Anwender zu Korrektur <tspan
   dx="0 0 0 0 0 0 0 0 0 0 0 0 0 0 0 0 0 0 0 0 0 0 0 0 0 0 0 0 0 0 0 0 0 0 0 0 0 0 0 0 0 0 0 0 0 0 0 0 0 0 0 0 0 0 0 0 0 0 -0.00012207031 0 0 0.00012207031 -0.00012207031"
   id="tspan734">an und liefert zuletzt den fertig untertitelten Videostream an </tspan></tspan><tspan
             x="422"
             y="1310.0225"
             id="tspan738">den Endkunden aus.</tspan></text><text
           xml:space="preserve"
           transform="matrix(0.2645579,0,0,0.26458333,-26.00341,80.617682)"
           id="text998"
           style="font-size:106.667px;font-family:'Open Sans';-inkscape-font-specification:'Open Sans, @wght=700,wdth=90.0';font-variation-settings:'wdth' 90, 'wght' 700;white-space:pre;shape-inside:url(#rect1000);display:inline;opacity:0.85;fill:#000001;fill-opacity:1;stroke-width:4.53543"
           inkscape:label="Projekt_Titel"><tspan
             x="519.37109"
             y="412.38504"
             id="tspan742"><tspan
               dx="0 0 0 0 0 0 0 0 0 0 0 0 0 0 0 0 0 0 0 0 0 0 0 0 0 0 0 0 0 0 0 0 0 0 0 0 0 0 0 0 0 0 0 0 0 0 0 0.00015068054"
               id="tspan740">Live Stream Editor zur Korrektur von Untertiteln
</tspan></tspan></text><rect
           style="font-variation-settings:'wdth' 90, 'wght' 700;opacity:0.85;fill:#e53009;fill-opacity:1;stroke-width:0.666375"
           id="rect238"
           width="69.993271"
           height="200"
           x="0"
           y="150"
           inkscape:label="HTWK_Box_right" /><rect
           style="font-variation-settings:'wdth' 90, 'wght' 700;opacity:0.85;fill:#e53009;fill-opacity:1;stroke-width:0.666375"
           id="rect238-8"
           width="69.993271"
           height="200"
           x="771.00671"
           y="150"
           inkscape:label="HTWK_Box_left" /></g><text
         xml:space="preserve"
         transform="matrix(0.2645579,0,0,0.26458333,519.75493,-34.483895)"
         id="text998-5"
         style="font-size:106.667px;font-family:'Open Sans';-inkscape-font-specification:'Open Sans, @wght=700,wdth=90.0';font-variation-settings:'wdth' 90, 'wght' 700;white-space:pre;shape-inside:url(#rect1000-7);display:inline;opacity:0.85;fill:#000000;fill-opacity:1;stroke-width:4.53543"
         inkscape:label="GruppenIdentifikator"><tspan
           x="519.37109"
           y="412.38504"
           id="tspan744">Projekt O</tspan></text><g
         id="g1128"
         transform="matrix(1.9514063,0,0,1.9514063,50.000001,50.000001)"
         inkscape:label="Logo_ HTWK"><path
           class="cls-1"
           d="M 43.54,0 V 4.68 H 36.78 V 24.6 H 31.2 V 4.68 H 24.45 V 0 Z m 7.3,24.6 H 57.7 L 60,13.43 c 0.41,-1.89 0.71,-3.88 1,-5.7 h 0.16 c 0.26,1.82 0.56,3.81 1,5.7 l 2.41,11.17 h 7 L 75.93,0 h -5.32 l -1.7,11.51 c -0.34,2.52 -0.68,5.13 -1,7.77 H 67.76 C 67.27,16.64 66.76,14 66.29,11.51 L 63.63,0 h -4.72 l -2.64,11.51 c -0.49,2.56 -1,5.17 -1.47,7.77 h -0.15 c -0.3,-2.6 -0.68,-5.21 -1,-7.77 L 52,0 h -5.7 z m 28.86,0 h 5.58 V 14.42 h 2.64 l 6.19,10.18 h 6.08 L 92.54,11.89 98.45,0 h -5.54 l -5,9.88 h -2.6 V 0 H 79.7 Z m -64,0 h 5.6 V 0 H 15.72 Z M 0,24.6 H 5.58 V 0 H 0 Z M 7.37,13.09 h 6.57 v -2.4 H 7.37 Z"
           id="path1097" /><path
           class="cls-1"
           d="m 112.48,9.9 h 0.64 V 12 h 2.36 V 9.9 h 0.64 V 15 h -0.64 v -2.43 h -2.36 V 15 h -0.64 z m 4.7,3.19 a 1.75,1.75 0 1 1 3.47,0 1.75,1.75 0 1 1 -3.47,0 z m 2.81,0 c 0,-0.86 -0.43,-1.45 -1.08,-1.45 -0.65,0 -1.07,0.59 -1.07,1.45 0,0.86 0.43,1.43 1.07,1.43 0.64,0 1.09,-0.52 1.09,-1.43 z m 1.6,0 a 1.81,1.81 0 0 1 1.81,-2 1.54,1.54 0 0 1 1.09,0.44 l -0.32,0.41 a 1.12,1.12 0 0 0 -0.75,-0.33 c -0.68,0 -1.17,0.59 -1.17,1.45 0,0.86 0.47,1.43 1.15,1.43 a 1.31,1.31 0 0 0 0.88,-0.37 l 0.28,0.42 a 1.83,1.83 0 0 1 -1.21,0.48 1.76,1.76 0 0 1 -1.76,-1.93 z m 4,-3.62 h 0.63 V 11 11.77 a 1.81,1.81 0 0 1 1.25,-0.61 c 0.78,0 1.14,0.51 1.14,1.46 V 15 H 128 v -2.33 c 0,-0.7 -0.21,-1 -0.7,-1 a 1.42,1.42 0 0 0 -1,0.57 V 15 h -0.63 z m 4,5.06 0.31,-0.42 a 1.73,1.73 0 0 0 1.11,0.45 c 0.49,0 0.74,-0.27 0.74,-0.59 0,-0.32 -0.45,-0.55 -0.86,-0.71 -0.41,-0.16 -1.12,-0.45 -1.12,-1.08 0,-0.63 0.48,-1.06 1.29,-1.06 a 1.85,1.85 0 0 1 1.16,0.42 l -0.3,0.4 a 1.38,1.38 0 0 0 -0.85,-0.33 c -0.47,0 -0.69,0.25 -0.69,0.54 0,0.29 0.41,0.49 0.83,0.65 0.42,0.16 1.15,0.42 1.15,1.13 0,0.71 -0.49,1.12 -1.38,1.12 a 2.2,2.2 0 0 1 -1.37,-0.52 z m 3.6,-1.44 a 1.81,1.81 0 0 1 1.8,-2 1.55,1.55 0 0 1 1.1,0.44 l -0.33,0.41 a 1.08,1.08 0 0 0 -0.74,-0.33 c -0.68,0 -1.18,0.59 -1.18,1.45 0,0.86 0.47,1.43 1.16,1.43 a 1.31,1.31 0 0 0 0.88,-0.37 l 0.28,0.42 a 1.85,1.85 0 0 1 -1.21,0.48 1.76,1.76 0 0 1 -1.74,-1.93 z m 4,-3.62 h 0.63 V 11 11.77 a 1.85,1.85 0 0 1 1.25,-0.61 c 0.79,0 1.14,0.51 1.14,1.46 V 15 h -0.63 v -2.33 c 0,-0.7 -0.21,-1 -0.71,-1 a 1.42,1.42 0 0 0 -1,0.57 V 15 h -0.63 z m 4.37,4.11 v -2.37 h 0.64 v 2.29 c 0,0.7 0.21,1 0.7,1 0.49,0 0.66,-0.19 1,-0.63 v -2.66 h 0.63 V 15 h -0.52 l -0.06,-0.59 v 0 a 1.59,1.59 0 0 1 -1.23,0.68 c -0.72,-0.04 -1.11,-0.55 -1.11,-1.51 z m 4.48,0.62 V 9.47 h 0.63 v 4.78 c 0,0.2 0.09,0.27 0.18,0.27 H 147 l 0.08,0.48 a 0.81,0.81 0 0 1 -0.36,0.06 c -0.44,-0.01 -0.63,-0.31 -0.63,-0.86 z M 148,13.09 a 1.8,1.8 0 0 1 1.68,-2 c 1,0 1.5,0.68 1.5,1.76 a 1.86,1.86 0 0 1 0,0.36 h -2.52 a 1.24,1.24 0 0 0 1.24,1.3 1.77,1.77 0 0 0 0.94,-0.29 l 0.22,0.41 a 2.19,2.19 0 0 1 -1.23,0.39 1.79,1.79 0 0 1 -1.83,-1.93 z m 2.62,-0.31 c 0,-0.75 -0.34,-1.16 -0.92,-1.16 a 1.15,1.15 0 0 0 -1.08,1.16 z m 3.6,-1 h -0.51 V 11.3 h 0.51 v -0.59 c 0,-0.77 0.35,-1.24 1.09,-1.24 a 1.72,1.72 0 0 1 0.63,0.12 l -0.14,0.48 a 1.11,1.11 0 0 0 -0.43,-0.09 c -0.35,0 -0.52,0.25 -0.52,0.73 v 0.59 h 0.79 v 0.52 h -0.79 V 15 h -0.63 z m 2.36,1.85 v -2.42 h 0.64 v 2.29 c 0,0.7 0.21,1 0.7,1 0.49,0 0.66,-0.19 1,-0.63 v -2.66 h 0.64 V 15 h -0.53 l -0.05,-0.59 v 0 a 1.56,1.56 0 0 1 -1.23,0.68 c -0.75,-0.04 -1.16,-0.55 -1.16,-1.51 z m 0.4,-3.53 a 0.38,0.38 0 1 1 0.38,0.38 0.38,0.38 0 0 1 -0.36,-0.43 z m 1.48,0 a 0.39,0.39 0 1 1 0.77,0 0.38,0.38 0 0 1 -0.39,0.38 0.38,0.38 0 0 1 -0.37,-0.43 z m 2.6,1.16 h 0.53 l 0.05,0.68 v 0 a 1.26,1.26 0 0 1 1.06,-0.77 1,1 0 0 1 0.4,0.07 l -0.12,0.56 a 1.06,1.06 0 0 0 -0.37,-0.06 c -0.31,0 -0.69,0.23 -0.94,0.86 V 15 h -0.64 z m 5.8,-0.77 h -1.53 V 9.9 H 169 v 0.54 h -1.53 V 15 h -0.64 z m 2.33,2.65 a 1.8,1.8 0 0 1 1.68,-2 c 1,0 1.5,0.68 1.5,1.76 a 3.53,3.53 0 0 1 0,0.36 h -2.53 a 1.24,1.24 0 0 0 1.25,1.3 1.76,1.76 0 0 0 0.93,-0.29 l 0.22,0.41 a 2.19,2.19 0 0 1 -1.23,0.39 1.79,1.79 0 0 1 -1.81,-1.98 z m 2.62,-0.31 c 0,-0.75 -0.34,-1.16 -0.92,-1.16 a 1.15,1.15 0 0 0 -1.08,1.16 z m 1.44,0.31 a 1.81,1.81 0 0 1 1.8,-2 1.55,1.55 0 0 1 1.1,0.44 l -0.33,0.41 a 1.08,1.08 0 0 0 -0.74,-0.33 c -0.68,0 -1.18,0.59 -1.18,1.45 0,0.86 0.48,1.43 1.16,1.43 a 1.31,1.31 0 0 0 0.88,-0.37 l 0.28,0.42 a 1.85,1.85 0 0 1 -1.21,0.48 1.76,1.76 0 0 1 -1.75,-1.98 z m 4,-3.62 h 0.63 V 11 11.77 a 1.85,1.85 0 0 1 1.25,-0.61 c 0.79,0 1.14,0.51 1.14,1.46 V 15 h -0.63 v -2.33 c 0,-0.7 -0.21,-1 -0.71,-1 a 1.42,1.42 0 0 0 -1,0.57 V 15 h -0.63 z m 4.42,1.74 h 0.53 v 0.54 0 a 1.79,1.79 0 0 1 1.26,-0.63 c 0.79,0 1.14,0.51 1.14,1.46 V 15 h -0.63 v -2.33 c 0,-0.7 -0.22,-1 -0.71,-1 a 1.43,1.43 0 0 0 -1,0.57 V 15 h -0.63 z M 186.05,10 a 0.41,0.41 0 0 1 0.44,-0.41 0.41,0.41 0 0 1 0.44,0.41 0.42,0.42 0 0 1 -0.44,0.41 0.41,0.41 0 0 1 -0.44,-0.41 z m 0.11,1.18 h 0.64 V 15 h -0.64 z m 2.13,-1.74 h 0.63 v 3.71 0 l 1.6,-2 h 0.7 L 190,12.71 191.41,15 h -0.7 l -1.09,-1.81 -0.7,0.82 v 1 h -0.63 z m 3.78,6.43 a 1.05,1.05 0 0 0 0.7,-0.94 h -0.08 a 0.42,0.42 0 0 1 -0.46,-0.44 0.45,0.45 0 0 1 0.48,-0.44 c 0.33,0 0.53,0.28 0.53,0.75 a 1.54,1.54 0 0 1 -1,1.44 z M 112,19.54 h 0.66 l 0.53,2.75 c 0.09,0.55 0.2,1.09 0.29,1.64 v 0 c 0.11,-0.55 0.23,-1.1 0.35,-1.64 l 0.7,-2.75 h 0.59 l 0.7,2.75 c 0.12,0.53 0.25,1.09 0.37,1.64 v 0 c 0.09,-0.55 0.19,-1.1 0.29,-1.64 l 0.53,-2.75 h 0.61 l -1,5.06 h -0.77 l -0.77,-3.05 c -0.09,-0.39 -0.17,-0.75 -0.24,-1.15 v 0 c -0.07,0.4 -0.17,0.76 -0.25,1.15 l -0.75,3.05 H 113 Z m 6.64,0.13 a 0.41,0.41 0 0 1 0.44,-0.41 0.41,0.41 0 1 1 0,0.82 0.41,0.41 0 0 1 -0.47,-0.41 z m 0.11,1.18 h 0.64 v 3.75 h -0.64 z m 2.13,0 h 0.53 l 0.05,0.68 v 0 a 1.29,1.29 0 0 1 1.07,-0.77 0.84,0.84 0 0 1 0.4,0.08 l -0.12,0.55 a 1.06,1.06 0 0 0 -0.37,-0.06 c -0.31,0 -0.69,0.23 -0.94,0.86 v 2.41 h -0.64 z m 3,2.59 v -2.07 h -0.55 v -0.48 h 0.58 L 124,19.8 h 0.53 v 1.05 h 1 v 0.52 h -1 v 2.08 c 0,0.46 0.15,0.72 0.58,0.72 a 1.34,1.34 0 0 0 0.43,-0.1 l 0.12,0.48 a 2.29,2.29 0 0 1 -0.7,0.14 c -0.81,0 -1.08,-0.51 -1.08,-1.25 z m 2.31,0.73 0.31,-0.42 a 1.72,1.72 0 0 0 1.1,0.45 c 0.5,0 0.74,-0.26 0.74,-0.59 0,-0.33 -0.44,-0.55 -0.85,-0.71 -0.41,-0.16 -1.12,-0.44 -1.12,-1.08 0,-0.64 0.48,-1.06 1.29,-1.06 a 1.85,1.85 0 0 1 1.16,0.42 l -0.3,0.4 a 1.38,1.38 0 0 0 -0.85,-0.33 c -0.47,0 -0.69,0.26 -0.69,0.54 0,0.28 0.41,0.49 0.83,0.65 0.42,0.16 1.14,0.42 1.14,1.13 0,0.71 -0.48,1.12 -1.37,1.12 a 2.2,2.2 0 0 1 -1.39,-0.52 z m 3.57,-1.44 a 1.81,1.81 0 0 1 1.8,-2 1.59,1.59 0 0 1 1.1,0.44 l -0.33,0.41 a 1.08,1.08 0 0 0 -0.75,-0.33 c -0.67,0 -1.17,0.59 -1.17,1.45 0,0.86 0.47,1.44 1.16,1.44 a 1.32,1.32 0 0 0 0.88,-0.38 l 0.27,0.42 a 1.81,1.81 0 0 1 -1.21,0.48 1.76,1.76 0 0 1 -1.75,-1.93 z m 4,-3.62 h 0.64 v 1.5 0.77 a 1.8,1.8 0 0 1 1.25,-0.62 c 0.79,0 1.14,0.51 1.14,1.46 v 2.38 h -0.63 v -2.29 c 0,-0.7 -0.22,-1 -0.71,-1 a 1.42,1.42 0 0 0 -1,0.57 v 2.72 h -0.64 z m 4.14,4.52 c 0,-0.82 0.7,-1.23 2.3,-1.41 0,-0.47 -0.16,-0.94 -0.77,-0.94 a 2,2 0 0 0 -1.12,0.4 l -0.25,-0.43 a 2.73,2.73 0 0 1 1.47,-0.49 c 0.92,0 1.31,0.61 1.31,1.54 v 2.3 h -0.53 l -0.05,-0.45 v 0 a 2.05,2.05 0 0 1 -1.25,0.54 1,1 0 0 1 -1.09,-1.06 z m 2.3,0.05 v -1 c -1.25,0.15 -1.68,0.46 -1.68,0.94 a 0.58,0.58 0 0 0 0.66,0.6 1.56,1.56 0 0 0 1.04,-0.54 z m 2.16,-2.31 h -0.51 v -0.48 h 0.51 V 20.3 c 0,-0.76 0.34,-1.24 1.09,-1.24 a 1.72,1.72 0 0 1 0.63,0.12 l -0.14,0.49 a 1,1 0 0 0 -0.43,-0.1 c -0.35,0 -0.52,0.25 -0.52,0.73 v 0.59 h 1.37 l 0.08,-1.05 H 145 v 1.05 h 1 v 0.52 h -1 v 2.08 c 0,0.46 0.16,0.72 0.59,0.72 a 1.23,1.23 0 0 0 0.42,-0.1 l 0.13,0.48 a 2.29,2.29 0 0 1 -0.7,0.14 c -0.8,0 -1.07,-0.51 -1.07,-1.25 V 21.37 H 143 v 3.23 h -0.63 z m 6.42,1.86 v -2.38 h 0.64 v 2.29 c 0,0.7 0.21,1 0.7,1 0.49,0 0.66,-0.19 1,-0.63 v -2.66 h 0.64 v 3.75 h -0.53 v -0.59 0 a 1.59,1.59 0 0 1 -1.24,0.68 c -0.83,0 -1.19,-0.51 -1.19,-1.46 z m 4.48,-2.38 h 0.52 l 0.06,0.54 v 0 a 1.79,1.79 0 0 1 1.26,-0.63 c 0.78,0 1.14,0.51 1.14,1.46 v 2.38 h -0.63 v -2.29 c 0,-0.7 -0.22,-1 -0.71,-1 a 1.45,1.45 0 0 0 -1,0.57 v 2.72 h -0.63 z m 4.18,1.88 a 1.78,1.78 0 0 1 1.63,-2 1.56,1.56 0 0 1 1,0.43 v -0.64 -1.41 h 0.64 v 5.49 h -0.53 l -0.05,-0.44 v 0 A 1.7,1.7 0 0 1 159,24.69 c -0.93,0 -1.54,-0.69 -1.54,-1.96 z m 2.65,0.91 v -2 a 1.34,1.34 0 0 0 -0.91,-0.39 c -0.61,0 -1.08,0.58 -1.08,1.44 0,0.86 0.37,1.43 1,1.43 a 1.27,1.27 0 0 0 1.01,-0.48 z m 4,-4.1 h 0.64 v 2.54 0 l 2.11,-2.54 h 0.72 l -1.56,1.93 1.83,3.13 h -0.72 l -1.52,-2.6 -0.87,1 v 1.6 h -0.64 z m 4.52,3.69 v -2.38 h 0.64 v 2.29 c 0,0.7 0.21,1 0.71,1 0.5,0 0.65,-0.19 1,-0.63 v -2.66 h 0.63 v 3.75 h -0.53 L 171,24 v 0 a 1.59,1.59 0 0 1 -1.24,0.68 c -0.76,0.01 -1.16,-0.5 -1.16,-1.45 z m 4.49,0.61 v -4.73 h 0.63 v 4.78 c 0,0.2 0.08,0.28 0.18,0.28 h 0.13 l 0.09,0.48 a 0.84,0.84 0 0 1 -0.36,0.06 c -0.49,-0.02 -0.68,-0.32 -0.68,-0.87 z m 2.3,-0.4 v -2.07 h -0.55 v -0.48 h 0.58 l 0.08,-1.05 H 176 v 1.05 h 1 v 0.52 h -1 v 2.08 c 0,0.46 0.15,0.72 0.58,0.72 a 1.23,1.23 0 0 0 0.42,-0.1 l 0.13,0.48 a 2.29,2.29 0 0 1 -0.7,0.14 c -0.77,-0.04 -1.04,-0.55 -1.04,-1.29 z m 2.68,-0.21 v -2.38 h 0.64 v 2.29 c 0,0.7 0.21,1 0.7,1 0.49,0 0.66,-0.19 1,-0.63 v -2.66 h 0.63 v 3.75 h -0.52 l -0.06,-0.59 v 0 a 1.59,1.59 0 0 1 -1.23,0.68 c -0.82,0 -1.17,-0.51 -1.17,-1.46 z m 4.38,-2.38 H 183 l 0.05,0.68 v 0 a 1.29,1.29 0 0 1 1.07,-0.77 0.84,0.84 0 0 1 0.4,0.08 l -0.12,0.55 a 1.06,1.06 0 0 0 -0.37,-0.06 c -0.31,0 -0.69,0.23 -0.95,0.86 v 2.41 h -0.63 z m 4.75,-1.31 h 0.64 v 4.51 h 2.21 v 0.55 h -2.86 z m 3.42,3.19 a 1.8,1.8 0 0 1 1.68,-2 c 0.95,0 1.49,0.68 1.49,1.76 a 3.53,3.53 0 0 1 0,0.36 h -2.53 a 1.24,1.24 0 0 0 1.25,1.3 1.68,1.68 0 0 0 0.93,-0.29 l 0.23,0.42 a 2.33,2.33 0 0 1 -1.24,0.38 1.79,1.79 0 0 1 -1.82,-1.93 z m 2.62,-0.31 c 0,-0.75 -0.34,-1.16 -0.93,-1.16 a 1.16,1.16 0 0 0 -1.08,1.16 z m 1.6,-2.75 a 0.42,0.42 0 0 1 0.44,-0.41 0.41,0.41 0 1 1 0,0.82 0.42,0.42 0 0 1 -0.45,-0.41 z m 0.12,1.18 h 0.63 V 24.6 H 195 Z m 2.12,0 h 0.52 l 0.06,0.43 v 0 a 2,2 0 0 1 1.2,-0.52 c 1,0 1.48,0.75 1.48,1.91 0,1.16 -0.77,2 -1.62,2 a 1.71,1.71 0 0 1 -1,-0.43 v 1.92 h -0.63 z m 2.62,1.82 c 0,-0.82 -0.28,-1.38 -1,-1.38 a 1.6,1.6 0 0 0 -1,0.51 v 2 a 1.51,1.51 0 0 0 0.92,0.39 c 0.62,-0.03 1.07,-0.59 1.07,-1.52 z m 1.36,1.59 2,-2.89 h -1.76 v -0.52 h 2.56 v 0.34 l -2,2.89 h 2 v 0.52 h -2.83 z m 3.86,-4.59 a 0.44,0.44 0 1 1 0.44,0.41 0.41,0.41 0 0 1 -0.45,-0.41 z m 0.12,1.18 h 0.63 V 24.6 H 205 Z m 1.81,4.47 a 1.08,1.08 0 0 1 0.55,-0.85 v 0 a 0.71,0.71 0 0 1 -0.33,-0.61 0.86,0.86 0 0 1 0.41,-0.7 v 0 a 1.31,1.31 0 0 1 -0.49,-1 1.34,1.34 0 0 1 1.41,-1.33 1.64,1.64 0 0 1 0.54,0.09 h 1.3 v 0.49 h -0.77 a 1.1,1.1 0 0 1 0.3,0.77 1.28,1.28 0 0 1 -1.37,1.3 1.39,1.39 0 0 1 -0.56,-0.13 0.58,0.58 0 0 0 -0.24,0.45 c 0,0.24 0.16,0.41 0.66,0.41 H 209 c 0.87,0 1.31,0.27 1.31,0.89 0,0.62 -0.73,1.3 -1.9,1.3 -0.92,-0.07 -1.56,-0.4 -1.56,-1.08 z m 2.83,-0.2 c 0,-0.34 -0.27,-0.46 -0.75,-0.46 h -0.65 a 1.73,1.73 0 0 1 -0.49,-0.06 0.77,0.77 0 0 0 -0.38,0.63 c 0,0.4 0.41,0.66 1.09,0.66 0.68,0 1.17,-0.37 1.17,-0.77 z m -0.48,-3 a 0.8,0.8 0 1 0 -1.59,0 0.8,0.8 0 1 0 1.59,0 z"
           id="path1099" /><path
           class="cls-2"
           d="M 113.46,5.19 A 2.07,2.07 0 0 1 112.53,5 2,2 0 0 1 111.91,4.54 L 112.3,4 a 2.15,2.15 0 0 0 0.48,0.36 1.3,1.3 0 0 0 0.6,0.14 1,1 0 0 0 0.61,-0.18 0.61,0.61 0 0 0 0.23,-0.5 0.88,0.88 0 0 0 -0.06,-0.33 0.62,0.62 0 0 0 -0.22,-0.24 1,1 0 0 0 -0.41,-0.15 2.93,2.93 0 0 0 -0.65,-0.06 V 2.44 A 2.94,2.94 0 0 0 113.45,2.39 1.22,1.22 0 0 0 113.81,2.24 0.58,0.58 0 0 0 114,2 0.68,0.68 0 0 0 114.06,1.71 0.58,0.58 0 0 0 113.88,1.26 0.74,0.74 0 0 0 113.39,1.1 1,1 0 0 0 112.9,1.22 2,2 0 0 0 112.47,1.53 L 112.06,1 a 2.52,2.52 0 0 1 0.63,-0.41 1.64,1.64 0 0 1 0.74,-0.16 2.23,2.23 0 0 1 0.6,0.08 1.24,1.24 0 0 1 0.46,0.23 1.26,1.26 0 0 1 0.31,0.38 1.19,1.19 0 0 1 0.1,0.51 1,1 0 0 1 -0.21,0.65 1.4,1.4 0 0 1 -0.58,0.4 v 0 a 1.33,1.33 0 0 1 0.67,0.39 1,1 0 0 1 0.27,0.74 1.28,1.28 0 0 1 -0.12,0.56 1.25,1.25 0 0 1 -0.35,0.41 1.58,1.58 0 0 1 -0.5,0.26 2.11,2.11 0 0 1 -0.62,0.15 z"
           id="path1101" /><path
           class="cls-2"
           d="m 117.24,5.19 a 1.31,1.31 0 0 1 -1.13,-0.62 3.17,3.17 0 0 1 -0.41,-1.77 3.12,3.12 0 0 1 0.41,-1.75 1.33,1.33 0 0 1 1.13,-0.59 1.29,1.29 0 0 1 1.13,0.6 3,3 0 0 1 0.42,1.74 3.08,3.08 0 0 1 -0.42,1.77 1.29,1.29 0 0 1 -1.13,0.62 z m 0,-0.65 a 0.59,0.59 0 0 0 0.31,-0.09 0.79,0.79 0 0 0 0.24,-0.29 2.51,2.51 0 0 0 0.16,-0.54 6.09,6.09 0 0 0 0,-0.82 5.77,5.77 0 0 0 0,-0.8 2.24,2.24 0 0 0 -0.16,-0.53 0.68,0.68 0 0 0 -0.24,-0.28 0.58,0.58 0 0 0 -0.31,-0.08 0.52,0.52 0 0 0 -0.3,0.08 0.68,0.68 0 0 0 -0.24,0.28 1.86,1.86 0 0 0 -0.16,0.53 4.42,4.42 0 0 0 -0.06,0.8 4.67,4.67 0 0 0 0.06,0.82 2,2 0 0 0 0.16,0.54 0.79,0.79 0 0 0 0.24,0.29 0.53,0.53 0 0 0 0.3,0.09 z"
           id="path1103" /><path
           class="cls-2"
           d="m 122.08,5.19 a 1.64,1.64 0 0 1 -0.83,-0.2 1.55,1.55 0 0 1 -0.56,-0.6 l 0.57,-0.42 a 0.86,0.86 0 0 0 0.33,0.37 0.72,0.72 0 0 0 0.4,0.12 0.58,0.58 0 0 0 0.49,-0.2 1.1,1.1 0 0 0 0.17,-0.7 V 0.42 h 0.83 v 3.21 a 2.37,2.37 0 0 1 -0.08,0.61 1.34,1.34 0 0 1 -0.25,0.49 1.22,1.22 0 0 1 -0.44,0.33 1.34,1.34 0 0 1 -0.63,0.13 z"
           id="path1105" /><path
           class="cls-2"
           d="m 125.43,5.19 a 1,1 0 0 1 -0.76,-0.29 1,1 0 0 1 -0.28,-0.74 1,1 0 0 1 0.12,-0.5 1,1 0 0 1 0.37,-0.38 2.58,2.58 0 0 1 0.64,-0.26 6.16,6.16 0 0 1 0.94,-0.17 2,2 0 0 0 0,-0.26 0.57,0.57 0 0 0 -0.11,-0.22 0.43,0.43 0 0 0 -0.2,-0.15 0.67,0.67 0 0 0 -0.3,-0.05 1.24,1.24 0 0 0 -0.5,0.1 2.47,2.47 0 0 0 -0.49,0.24 l -0.3,-0.55 A 3.36,3.36 0 0 1 125.22,1.64 2.09,2.09 0 0 1 126,1.5 1.19,1.19 0 0 1 127,1.89 1.71,1.71 0 0 1 127.28,3 v 2.1 h -0.68 l -0.06,-0.39 v 0 a 2.1,2.1 0 0 1 -0.5,0.34 1.27,1.27 0 0 1 -0.61,0.14 z m 0.26,-0.65 a 0.76,0.76 0 0 0 0.39,-0.1 2.61,2.61 0 0 0 0.38,-0.28 V 3.37 a 3.61,3.61 0 0 0 -0.6,0.11 1.74,1.74 0 0 0 -0.4,0.16 0.53,0.53 0 0 0 -0.21,0.21 0.4,0.4 0 0 0 -0.07,0.24 0.4,0.4 0 0 0 0.14,0.34 0.56,0.56 0 0 0 0.37,0.11 z"
           id="path1107" /><path
           class="cls-2"
           d="m 128.27,5.1 v -5 h 0.82 v 1.3 0.68 a 3,3 0 0 1 0.49,-0.37 1.19,1.19 0 0 1 0.64,-0.16 0.94,0.94 0 0 1 0.82,0.36 1.79,1.79 0 0 1 0.26,1 V 5.1 h -0.83 V 3 a 1,1 0 0 0 -0.13,-0.61 0.47,0.47 0 0 0 -0.42,-0.18 0.67,0.67 0 0 0 -0.4,0.11 2.42,2.42 0 0 0 -0.4,0.32 V 5.1 Z"
           id="path1109" /><path
           class="cls-2"
           d="M 132.26,5.1 V 1.59 h 0.68 L 133,2.21 v 0 a 1.4,1.4 0 0 1 0.45,-0.53 1,1 0 0 1 0.55,-0.18 0.9,0.9 0 0 1 0.4,0.07 l -0.14,0.72 h -0.17 -0.19 a 0.75,0.75 0 0 0 -0.44,0.16 1.33,1.33 0 0 0 -0.4,0.56 V 5.1 Z"
           id="path1111" /><path
           class="cls-2"
           d="m 136.36,5.19 a 1.91,1.91 0 0 1 -0.68,-0.13 1.54,1.54 0 0 1 -0.55,-0.36 1.65,1.65 0 0 1 -0.37,-0.58 2,2 0 0 1 -0.13,-0.77 2.13,2.13 0 0 1 0.14,-0.78 1.78,1.78 0 0 1 0.36,-0.58 1.57,1.57 0 0 1 0.52,-0.36 1.38,1.38 0 0 1 0.6,-0.13 1.54,1.54 0 0 1 0.63,0.12 1.28,1.28 0 0 1 0.45,0.34 1.58,1.58 0 0 1 0.28,0.53 2.43,2.43 0 0 1 0.09,0.68 1.77,1.77 0 0 1 0,0.23 c 0,0.07 0,0.13 0,0.17 h -2.24 a 1.09,1.09 0 0 0 0.34,0.72 1,1 0 0 0 0.7,0.26 1.21,1.21 0 0 0 0.43,-0.07 1.75,1.75 0 0 0 0.39,-0.19 l 0.28,0.52 a 2.63,2.63 0 0 1 -0.56,0.27 2,2 0 0 1 -0.68,0.11 z M 135.43,3 H 137 a 1,1 0 0 0 -0.18,-0.64 0.63,0.63 0 0 0 -0.54,-0.23 0.77,0.77 0 0 0 -0.55,0.22 1,1 0 0 0 -0.3,0.65 z"
           id="path1113" /></g></g></g></svg>
