<svg xmlns="http://www.w3.org/2000/svg" viewBox="0 0 460.12 91.57">
    <!-- <symbol id="login" viewBox="0 0 512 512">
        <path
            d="M256 256c52.805 0 96-43.201 96-96s-43.195-96-96-96-96 43.201-96 96 43.195 96 96 96zm0 48c-63.598 0-192 32.402-192 96v48h384v-48c0-63.598-128.402-96-192-96z"
            color="black" stroke="black" />
    </symbol>
    <symbol id="basket" viewBox="0 0 512 512">
        <path
            d="M362.1 205.2L272.9 72.5C269 66.8 262.5 64 256 64c-6.5 0-13 2.8-16.9 8.7l-89.2 132.5H52.4c-11.2 0-20.4 9.1-20.4 20.2 0 1.8.2 3.6.8 5.5l51.7 187.5c4.7 17 20.4 29.5 39.1 29.5h264.7c18.7 0 34.4-12.5 39.3-29.5l51.7-187.5.6-5.5c0-11.1-9.2-20.2-20.4-20.2h-97.4zm-167.2 0l61.1-89 61.1 89H194.9zM256 367.1c-22.4 0-40.7-18.2-40.7-40.5s18.3-40.5 40.7-40.5 40.7 18.2 40.7 40.5-18.3 40.5-40.7 40.5z" />
    </symbol>
    <symbol id="suche" viewBox="0 0 512 512">
        <path
            d="M337.509 305.372h-17.501l-6.571-5.486c20.791-25.232 33.922-57.054 33.922-93.257C347.358 127.632 283.896 64 205.135 64 127.452 64 64 127.632 64 206.629s63.452 142.628 142.225 142.628c35.011 0 67.831-13.167 92.991-34.008l6.561 5.487v17.551L415.18 448 448 415.086 337.509 305.372zm-131.284 0c-54.702 0-98.463-43.887-98.463-98.743 0-54.858 43.761-98.742 98.463-98.742 54.7 0 98.462 43.884 98.462 98.742 0 54.856-43.762 98.743-98.462 98.743z" />
    </symbol> -->
    <path fill-rule="evenodd"
        d="M381.94,0V8.89H363.4c-9.27.23-14.65,5.85-14.34,12.47.55,11.14,7.64,12.31,21,11.77V18.71h16.52V41.62H352.41c-9-.7-14.41-3.82-18.23-10.36a20.82,20.82,0,0,1,.54-21.75c4.6-6.7,12.16-9.51,20-9.51C363.79.08,381.94,0,381.94,0ZM271.38,8.42s10.13.16,10.67,11.77c.24,5.46-3.5,12.16-11.3,12.39h-9.19V8.42ZM94.2,9c3.74.08,4.75,3.12,4.36,4.68.23,1.87-1.72,4.44-4.44,4.67h-12V9ZM323.82,0V41.62h-17L306.91,0ZM278.55.08c8.88.23,21.34,5.22,21.42,20,.08,17-15,21.36-22.36,21.51H244.89L245,.08ZM223,0c4.36.24,8.57,2,10.52,6a13.66,13.66,0,0,1,1.8,6.86V41.62H218.55V12.31C217.7,8.58,212.71,9,212.71,9H201.64l.08,32.58H185.05V0ZM141.34,0V27.9c-.24,3.59,1.63,5.39,5.3,5h11.84V0h16.36V41.62H136.12a11.67,11.67,0,0,1-9.82-6.39c-2.73-4.52-1.8-9.66-2-14.81V0Zm-38,0a13,13,0,0,1,11.14,7.17A13.52,13.52,0,0,1,114.14,20,10,10,0,0,1,109.78,24c4.13,2.73,9.2,17.61,9.2,17.61H101.91s-4.29-11-6.62-13.09C93.26,26.66,82,27.28,82,27.28V41.62H65V0ZM50.56,0V8.89H32c-9.27.23-14.65,5.85-14.34,12.47.55,11.14,7.64,12.31,21,11.77V18.71H55.24V41.62H21c-9-.7-14.41-3.82-18.23-10.36A20.82,20.82,0,0,1,3.35,9.51C7.94,2.81,15.5,0,23.37,0,32.41.08,50.56,0,50.56,0Zm91,84.6h13.38c4.91,0,7.16-3.3,7.16-6.54s-1.68-5-4.28-5.58v-.06a4.65,4.65,0,0,0,3.29-4.79c0-3.55-2.15-5.67-7-5.67H141.53Zm3.35-13.29V64.87h9c2.76,0,3.86,1.21,3.86,3.27,0,1.81-1.2,3.17-3.67,3.17Zm0,10.37V74.23h9.39c3.42,0,4.44,1.83,4.44,3.61,0,1.94-1,3.84-4.73,3.84Zm38.77,2.92h-3.17V82.09h-.07a7.41,7.41,0,0,1-6.49,3.07c-4,0-7-1.71-7-5.86V68h3.17V78.67c0,2.44,1.52,3.83,4.91,3.83,2.89,0,5.46-1.68,5.46-4.94V68h3.17ZM191,79.36c0,1.5,1.21,3.33,5.24,3.33s5.07-1.42,5.07-2.6-.6-1.87-3.14-2.22l-5.23-.7c-2.38-.31-4.5-1.83-4.5-4.4,0-3.36,2.91-5.36,7.58-5.36,5.45,0,7.83,2.35,8.11,5.58H201c-.1-1.68-1.68-3.11-5-3.11-2,0-4.37.57-4.37,2.54,0,1.11.5,1.74,2.76,2.06l4.5.6c4.18.57,5.8,2.07,5.8,4.41,0,3.87-3.27,5.67-8.34,5.67-3.8,0-8.15-1-8.5-5.8Zm17.85,5.24H212V68h-3.17Zm0-19.35H212V61.76h-3.17ZM217.13,68h3.17v2.5h.07a7.44,7.44,0,0,1,6.5-3.07c4,0,7,1.71,7,5.86V84.6h-3.17V73.91c0-2.44-1.52-3.84-4.91-3.84-2.89,0-5.46,1.68-5.46,5V84.6h-3.17Zm39.75,9.26v-.41c0-6.88-4.63-9.42-9-9.42-6.47,0-9.64,4.09-9.64,8.88s3.17,8.87,9.64,8.87a9,9,0,0,0,8.56-5.61h-3.36c-1.08,2.35-3.55,3-5.36,3a5.88,5.88,0,0,1-6.12-5.26ZM241.7,74.76c.48-3,3.1-4.69,6-4.69s5.33,1.68,5.8,4.69Zm21.9,4.6c0,1.5,1.21,3.33,5.23,3.33s5.07-1.42,5.07-2.6-.59-1.87-3.13-2.22l-5.23-.7c-2.38-.31-4.5-1.83-4.5-4.4,0-3.36,2.91-5.36,7.58-5.36,5.45,0,7.83,2.35,8.11,5.58h-3.17c-.1-1.68-1.68-3.11-5-3.11-2,0-4.38.57-4.38,2.54,0,1.11.51,1.74,2.77,2.06l4.49.6c4.19.57,5.81,2.07,5.81,4.41,0,3.87-3.27,5.67-8.34,5.67-3.8,0-8.15-1-8.5-5.8Zm20.07,0c0,1.5,1.2,3.33,5.23,3.33s5.07-1.42,5.07-2.6-.6-1.87-3.14-2.22l-5.23-.7c-2.38-.31-4.5-1.83-4.5-4.4,0-3.36,2.91-5.36,7.58-5.36,5.45,0,7.83,2.35,8.11,5.58h-3.17c-.09-1.68-1.68-3.11-5-3.11-2,0-4.37.57-4.37,2.54,0,1.11.51,1.74,2.76,2.06l4.5.6c4.19.57,5.8,2.07,5.8,4.41,0,3.87-3.26,5.67-8.34,5.67-3.8,0-8.15-1-8.5-5.8Zm31.63-2.21c.06,4,3.87,5.1,7.29,5.1,3.58,0,6.12-1.37,6.12-3.84,0-2.06-1.62-2.92-4.22-3.36l-5.13-.85c-2.7-.45-6.72-1.53-6.72-5.93,0-4.13,3.26-6.88,9.06-6.88,4.54,0,9.33,1.64,9.64,7.1H328c-.29-1.78-1.3-4.19-6.72-4.19-2.47,0-5.26,1-5.26,3.71,0,1.4.92,2.51,3.7,3l5.56,1c1.77.32,6.81,1.18,6.81,5.8,0,5.78-5.17,7.42-9.73,7.42-5.11,0-10.4-1.77-10.4-8ZM348.65,68h3.55l-8.69,19.47c-1.58,3.52-2.82,4.12-5.76,4.12-.8,0-1.59-.06-2.41-.13V88.78c.57,0,1.07.13,1.83.13,2,0,2.44-.41,3.46-2.54l.73-1.52L333.68,68h3.65L343,81.11Zm8.81,11.38c0,1.5,1.21,3.33,5.23,3.33s5.07-1.42,5.07-2.6-.6-1.87-3.13-2.22l-5.24-.7c-2.37-.31-4.5-1.83-4.5-4.4,0-3.36,2.92-5.36,7.58-5.36,5.45,0,7.83,2.35,8.12,5.58h-3.17c-.1-1.68-1.68-3.11-5-3.11-2,0-4.38.57-4.38,2.54,0,1.11.51,1.74,2.76,2.06l4.5.6c4.19.57,5.81,2.07,5.81,4.41,0,3.87-3.27,5.67-8.34,5.67-3.81,0-8.15-1-8.5-5.8ZM376.7,62.87h3.17V68h4.75v2.47h-4.75V80.69c0,1.34.95,1.81,2.56,1.81a12.51,12.51,0,0,0,2.19-.22v2.66a20.68,20.68,0,0,1-3.55.22c-3.1,0-4.37-1.52-4.37-3.93V70.45h-3.43V68h3.43Zm29.51,14.37v-.41c0-6.88-4.63-9.42-9-9.42-6.47,0-9.64,4.09-9.64,8.88s3.17,8.87,9.64,8.87a9,9,0,0,0,8.56-5.61h-3.36c-1.08,2.35-3.56,3-5.37,3a5.87,5.87,0,0,1-6.11-5.26ZM391,74.76c.48-3,3.11-4.69,6-4.69a5.48,5.48,0,0,1,5.81,4.69ZM436,74c0-3-1.94-4-4-4-2.88,0-5.45,1.37-5.45,4.47V84.6h-3.17V74c0-3-1.94-4-4-4-2.89,0-5.46,1.68-5.46,5V84.6h-3.17V68h3.17v2.5h.06a7.44,7.44,0,0,1,6.5-3.07,6.39,6.39,0,0,1,5.65,3.07,8,8,0,0,1,6.72-3.07c1.68,0,6.31.79,6.31,5.86V84.6H436Zm10.51,5.33c0,1.5,1.2,3.33,5.23,3.33s5.07-1.42,5.07-2.6-.6-1.87-3.14-2.22l-5.23-.7c-2.38-.31-4.5-1.83-4.5-4.4,0-3.36,2.92-5.36,7.58-5.36,5.45,0,7.83,2.35,8.11,5.58h-3.17c-.09-1.68-1.68-3.11-5-3.11-2,0-4.38.57-4.38,2.54,0,1.11.51,1.74,2.76,2.06l4.5.6c4.19.57,5.8,2.07,5.8,4.41,0,3.87-3.26,5.67-8.33,5.67-3.81,0-8.15-1-8.5-5.8Z" />

</svg>