<svg id="Ebene_1" data-name="Ebene 1" xmlns="http://www.w3.org/2000/svg" viewBox="0 0 210.3 26.33"><defs><style>.cls-1{fill:#1d1d1c;}.cls-2{fill:#1a9cd8;}</style></defs><path class="cls-1" d="M43.54,0V4.68H36.78V24.6H31.2V4.68H24.45V0Zm7.3,24.6H57.7L60,13.43c.41-1.89.71-3.88,1-5.7h.16c.26,1.82.56,3.81,1,5.7L64.57,24.6h7L75.93,0H70.61l-1.7,11.51c-.34,2.52-.68,5.13-1,7.77h-.15c-.49-2.64-1-5.28-1.47-7.77L63.63,0H58.91L56.27,11.51c-.49,2.56-1,5.17-1.47,7.77h-.15c-.3-2.6-.68-5.21-1-7.77L52,0h-5.7Zm28.86,0h5.58V14.42h2.64L94.11,24.6h6.08L92.54,11.89,98.45,0H92.91l-5,9.88h-2.6V0H79.7Zm-64,0H21.3V0H15.72ZM0,24.6H5.58V0H0ZM7.37,13.09h6.57v-2.4H7.37Z"/><path class="cls-1" d="M112.48,9.9h.64V12h2.36V9.9h.64V15h-.64V12.57h-2.36V15h-.64Zm4.7,3.19a1.75,1.75,0,1,1,3.47,0,1.75,1.75,0,1,1-3.47,0Zm2.81,0c0-.86-.43-1.45-1.08-1.45s-1.07.59-1.07,1.45.43,1.43,1.07,1.43S120,14,120,13.09Zm1.6,0a1.81,1.81,0,0,1,1.81-2,1.54,1.54,0,0,1,1.09.44l-.32.41a1.12,1.12,0,0,0-.75-.33c-.68,0-1.17.59-1.17,1.45s.47,1.43,1.15,1.43a1.31,1.31,0,0,0,.88-.37l.28.42a1.83,1.83,0,0,1-1.21.48A1.76,1.76,0,0,1,121.59,13.09Zm4-3.62h.63V11l0,.77a1.81,1.81,0,0,1,1.25-.61c.78,0,1.14.51,1.14,1.46V15H128V12.67c0-.7-.21-1-.7-1a1.42,1.42,0,0,0-1,.57V15h-.63Zm4,5.06.31-.42a1.73,1.73,0,0,0,1.11.45c.49,0,.74-.27.74-.59s-.45-.55-.86-.71-1.12-.45-1.12-1.08.48-1.06,1.29-1.06a1.85,1.85,0,0,1,1.16.42l-.3.4a1.38,1.38,0,0,0-.85-.33c-.47,0-.69.25-.69.54s.41.49.83.65,1.15.42,1.15,1.13-.49,1.12-1.38,1.12A2.2,2.2,0,0,1,129.61,14.53Zm3.6-1.44a1.81,1.81,0,0,1,1.8-2,1.55,1.55,0,0,1,1.1.44l-.33.41a1.08,1.08,0,0,0-.74-.33c-.68,0-1.18.59-1.18,1.45s.47,1.43,1.16,1.43a1.31,1.31,0,0,0,.88-.37l.28.42a1.85,1.85,0,0,1-1.21.48A1.76,1.76,0,0,1,133.21,13.09Zm4-3.62h.63V11l0,.77a1.85,1.85,0,0,1,1.25-.61c.79,0,1.14.51,1.14,1.46V15h-.63V12.67c0-.7-.21-1-.71-1a1.42,1.42,0,0,0-1,.57V15h-.63Zm4.37,4.11V11.21h.64V13.5c0,.7.21,1,.7,1s.66-.19,1-.63V11.21h.63V15h-.52l-.06-.59h0a1.59,1.59,0,0,1-1.23.68C142,15.05,141.61,14.54,141.61,13.58Zm4.48.62V9.47h.63v4.78c0,.2.09.27.18.27H147l.08.48a.81.81,0,0,1-.36.06C146.28,15.05,146.09,14.75,146.09,14.2ZM148,13.09a1.8,1.8,0,0,1,1.68-2c1,0,1.5.68,1.5,1.76a1.86,1.86,0,0,1,0,.36h-2.52a1.24,1.24,0,0,0,1.24,1.3,1.77,1.77,0,0,0,.94-.29l.22.41a2.19,2.19,0,0,1-1.23.39A1.79,1.79,0,0,1,148,13.09Zm2.62-.31c0-.75-.34-1.16-.92-1.16a1.15,1.15,0,0,0-1.08,1.16Zm3.6-1h-.51v-.48l.51,0v-.59c0-.77.35-1.24,1.09-1.24a1.72,1.72,0,0,1,.63.12l-.14.48a1.11,1.11,0,0,0-.43-.09c-.35,0-.52.25-.52.73v.59h.79v.52h-.79V15h-.63Zm2.36,1.85V11.21h.64V13.5c0,.7.21,1,.7,1s.66-.19,1-.63V11.21h.64V15h-.53l-.05-.59h0a1.56,1.56,0,0,1-1.23.68C157,15.05,156.59,14.54,156.59,13.58Zm.4-3.53a.38.38,0,1,1,.38.38A.38.38,0,0,1,157,10.05Zm1.48,0a.39.39,0,1,1,.77,0,.38.38,0,0,1-.39.38A.38.38,0,0,1,158.47,10.05Zm2.6,1.16h.53l.05.68h0a1.26,1.26,0,0,1,1.06-.77,1,1,0,0,1,.4.07l-.12.56a1.06,1.06,0,0,0-.37-.06c-.31,0-.69.23-.94.86V15h-.64Zm5.8-.77h-1.53V9.9H169v.54h-1.53V15h-.64Zm2.33,2.65a1.8,1.8,0,0,1,1.68-2c1,0,1.5.68,1.5,1.76a3.53,3.53,0,0,1,0,.36h-2.53a1.24,1.24,0,0,0,1.25,1.3,1.76,1.76,0,0,0,.93-.29l.22.41a2.19,2.19,0,0,1-1.23.39A1.79,1.79,0,0,1,169.2,13.09Zm2.62-.31c0-.75-.34-1.16-.92-1.16a1.15,1.15,0,0,0-1.08,1.16Zm1.44.31a1.81,1.81,0,0,1,1.8-2,1.55,1.55,0,0,1,1.1.44l-.33.41a1.08,1.08,0,0,0-.74-.33c-.68,0-1.18.59-1.18,1.45s.48,1.43,1.16,1.43a1.31,1.31,0,0,0,.88-.37l.28.42a1.85,1.85,0,0,1-1.21.48A1.76,1.76,0,0,1,173.26,13.09Zm4-3.62h.63V11l0,.77a1.85,1.85,0,0,1,1.25-.61c.79,0,1.14.51,1.14,1.46V15h-.63V12.67c0-.7-.21-1-.71-1a1.42,1.42,0,0,0-1,.57V15h-.63Zm4.42,1.74h.53l0,.54h0a1.79,1.79,0,0,1,1.26-.63c.79,0,1.14.51,1.14,1.46V15h-.63V12.67c0-.7-.22-1-.71-1a1.43,1.43,0,0,0-1,.57V15h-.63ZM186.05,10a.41.41,0,0,1,.44-.41.41.41,0,0,1,.44.41.42.42,0,0,1-.44.41A.41.41,0,0,1,186.05,10Zm.11,1.18h.64V15h-.64Zm2.13-1.74h.63v3.71h0l1.6-2h.7L190,12.71,191.41,15h-.7l-1.09-1.81-.7.82v1h-.63Zm3.78,6.43a1.05,1.05,0,0,0,.7-.94h-.08a.42.42,0,0,1-.46-.44.45.45,0,0,1,.48-.44c.33,0,.53.28.53.75a1.54,1.54,0,0,1-1,1.44ZM112,19.54h.66l.53,2.75c.09.55.2,1.09.29,1.64h0c.11-.55.23-1.1.35-1.64l.7-2.75h.59l.7,2.75c.12.53.25,1.09.37,1.64h0c.09-.55.19-1.1.29-1.64l.53-2.75h.61l-1,5.06h-.77l-.77-3.05c-.09-.39-.17-.75-.24-1.15h0c-.07.4-.17.76-.25,1.15l-.75,3.05H113Zm6.64.13a.41.41,0,0,1,.44-.41.41.41,0,1,1,0,.82A.41.41,0,0,1,118.61,19.67Zm.11,1.18h.64V24.6h-.64Zm2.13,0h.53l.05.68h0a1.29,1.29,0,0,1,1.07-.77.84.84,0,0,1,.4.08l-.12.55a1.06,1.06,0,0,0-.37-.06c-.31,0-.69.23-.94.86V24.6h-.64Zm3,2.59V21.37h-.55v-.48l.58,0L124,19.8h.53v1.05h1v.52h-1v2.08c0,.46.15.72.58.72a1.34,1.34,0,0,0,.43-.1l.12.48a2.29,2.29,0,0,1-.7.14C124.15,24.69,123.88,24.18,123.88,23.44Zm2.31.73.31-.42a1.72,1.72,0,0,0,1.1.45c.5,0,.74-.26.74-.59s-.44-.55-.85-.71-1.12-.44-1.12-1.08.48-1.06,1.29-1.06a1.85,1.85,0,0,1,1.16.42l-.3.4a1.38,1.38,0,0,0-.85-.33c-.47,0-.69.26-.69.54s.41.49.83.65,1.14.42,1.14,1.13-.48,1.12-1.37,1.12A2.2,2.2,0,0,1,126.19,24.17Zm3.57-1.44a1.81,1.81,0,0,1,1.8-2,1.59,1.59,0,0,1,1.1.44l-.33.41a1.08,1.08,0,0,0-.75-.33c-.67,0-1.17.59-1.17,1.45s.47,1.44,1.16,1.44a1.32,1.32,0,0,0,.88-.38l.27.42a1.81,1.81,0,0,1-1.21.48A1.76,1.76,0,0,1,129.76,22.73Zm4-3.62h.64v1.5l0,.77a1.8,1.8,0,0,1,1.25-.62c.79,0,1.14.51,1.14,1.46V24.6h-.63V22.31c0-.7-.22-1-.71-1a1.42,1.42,0,0,0-1,.57V24.6h-.64Zm4.14,4.52c0-.82.7-1.23,2.3-1.41,0-.47-.16-.94-.77-.94a2,2,0,0,0-1.12.4l-.25-.43a2.73,2.73,0,0,1,1.47-.49c.92,0,1.31.61,1.31,1.54v2.3h-.53l-.05-.45h0a2.05,2.05,0,0,1-1.25.54A1,1,0,0,1,137.92,23.63Zm2.3.05v-1c-1.25.15-1.68.46-1.68.94a.58.58,0,0,0,.66.6A1.56,1.56,0,0,0,140.22,23.68Zm2.16-2.31h-.51v-.48l.51,0v-.59c0-.76.34-1.24,1.09-1.24a1.72,1.72,0,0,1,.63.12l-.14.49a1,1,0,0,0-.43-.1c-.35,0-.52.25-.52.73v.59h1.37l.08-1.05H145v1.05h1v.52h-1v2.08c0,.46.16.72.59.72a1.23,1.23,0,0,0,.42-.1l.13.48a2.29,2.29,0,0,1-.7.14c-.8,0-1.07-.51-1.07-1.25V21.37H143V24.6h-.63Zm6.42,1.86V20.85h.64v2.29c0,.7.21,1,.7,1s.66-.19,1-.63V20.85h.64V24.6h-.53l0-.59h0a1.59,1.59,0,0,1-1.24.68C149.16,24.69,148.8,24.18,148.8,23.23Zm4.48-2.38h.52l.06.54h0a1.79,1.79,0,0,1,1.26-.63c.78,0,1.14.51,1.14,1.46V24.6h-.63V22.31c0-.7-.22-1-.71-1a1.45,1.45,0,0,0-1,.57V24.6h-.63Zm4.18,1.88a1.78,1.78,0,0,1,1.63-2,1.56,1.56,0,0,1,1,.43l0-.64V19.11h.64V24.6h-.53l-.05-.44h0a1.7,1.7,0,0,1-1.13.53C158.07,24.69,157.46,24,157.46,22.73Zm2.65.91v-2a1.34,1.34,0,0,0-.91-.39c-.61,0-1.08.58-1.08,1.44s.37,1.43,1,1.43A1.27,1.27,0,0,0,160.11,23.64Zm4-4.1h.64v2.54h0l2.11-2.54h.72L166,21.47l1.83,3.13h-.72L165.59,22l-.87,1v1.6h-.64Zm4.52,3.69V20.85h.64v2.29c0,.7.21,1,.71,1s.65-.19,1-.63V20.85h.63V24.6h-.53L171,24h0a1.59,1.59,0,0,1-1.24.68C169,24.69,168.6,24.18,168.6,23.23Zm4.49.61V19.11h.63v4.78c0,.2.08.28.18.28l.13,0,.09.48a.84.84,0,0,1-.36.06C173.28,24.69,173.09,24.39,173.09,23.84Zm2.3-.4V21.37h-.55v-.48l.58,0,.08-1.05H176v1.05h1v.52h-1v2.08c0,.46.15.72.58.72a1.23,1.23,0,0,0,.42-.1l.13.48a2.29,2.29,0,0,1-.7.14C175.66,24.69,175.39,24.18,175.39,23.44Zm2.68-.21V20.85h.64v2.29c0,.7.21,1,.7,1s.66-.19,1-.63V20.85h.63V24.6h-.52l-.06-.59h0a1.59,1.59,0,0,1-1.23.68C178.42,24.69,178.07,24.18,178.07,23.23Zm4.38-2.38H183l.05.68h0a1.29,1.29,0,0,1,1.07-.77.84.84,0,0,1,.4.08l-.12.55a1.06,1.06,0,0,0-.37-.06c-.31,0-.69.23-.95.86V24.6h-.63Zm4.75-1.31h.64v4.51h2.21v.55H187.2Zm3.42,3.19a1.8,1.8,0,0,1,1.68-2c.95,0,1.49.68,1.49,1.76a3.53,3.53,0,0,1,0,.36h-2.53a1.24,1.24,0,0,0,1.25,1.3,1.68,1.68,0,0,0,.93-.29l.23.42a2.33,2.33,0,0,1-1.24.38A1.79,1.79,0,0,1,190.62,22.73Zm2.62-.31c0-.75-.34-1.16-.93-1.16a1.16,1.16,0,0,0-1.08,1.16Zm1.6-2.75a.42.42,0,0,1,.44-.41.41.41,0,1,1,0,.82A.42.42,0,0,1,194.84,19.67Zm.12,1.18h.63V24.6H195Zm2.12,0h.52l.06.43h0a2,2,0,0,1,1.2-.52c1,0,1.48.75,1.48,1.91s-.77,2-1.62,2a1.71,1.71,0,0,1-1-.43v1.92h-.63Zm2.62,1.82c0-.82-.28-1.38-1-1.38a1.6,1.6,0,0,0-1,.51v2a1.51,1.51,0,0,0,.92.39C199.25,24.16,199.7,23.6,199.7,22.67Zm1.36,1.59,2-2.89h-1.76v-.52h2.56v.34l-2,2.89h2v.52h-2.83Zm3.86-4.59a.44.44,0,1,1,.44.41A.41.41,0,0,1,204.92,19.67Zm.12,1.18h.63V24.6H205Zm1.81,4.47a1.08,1.08,0,0,1,.55-.85v0a.71.71,0,0,1-.33-.61.86.86,0,0,1,.41-.7v0a1.31,1.31,0,0,1-.49-1,1.34,1.34,0,0,1,1.41-1.33,1.64,1.64,0,0,1,.54.09h1.3v.49h-.77a1.1,1.1,0,0,1,.3.77,1.28,1.28,0,0,1-1.37,1.3,1.39,1.39,0,0,1-.56-.13.58.58,0,0,0-.24.45c0,.24.16.41.66.41H209c.87,0,1.31.27,1.31.89s-.73,1.3-1.9,1.3C207.49,26.33,206.85,26,206.85,25.32Zm2.83-.2c0-.34-.27-.46-.75-.46h-.65a1.73,1.73,0,0,1-.49-.06.77.77,0,0,0-.38.63c0,.4.41.66,1.09.66S209.68,25.52,209.68,25.12Zm-.48-3a.8.8,0,1,0-1.59,0,.8.8,0,1,0,1.59,0Z"/><path class="cls-2" d="M113.46,5.19a2.07,2.07,0,0,1-.93-.19,2,2,0,0,1-.62-.46L112.3,4a2.15,2.15,0,0,0,.48.36,1.3,1.3,0,0,0,.6.14,1,1,0,0,0,.61-.18.61.61,0,0,0,.23-.5.88.88,0,0,0-.06-.33.62.62,0,0,0-.22-.24,1,1,0,0,0-.41-.15,2.93,2.93,0,0,0-.65-.06v-.6a2.94,2.94,0,0,0,.57-.05,1.22,1.22,0,0,0,.36-.15A.58.58,0,0,0,114,2a.68.68,0,0,0,.06-.29.58.58,0,0,0-.18-.45.74.74,0,0,0-.49-.16,1,1,0,0,0-.49.12,2,2,0,0,0-.43.31L112.06,1a2.52,2.52,0,0,1,.63-.41,1.64,1.64,0,0,1,.74-.16,2.23,2.23,0,0,1,.6.08,1.24,1.24,0,0,1,.46.23,1.26,1.26,0,0,1,.31.38,1.19,1.19,0,0,1,.1.51,1,1,0,0,1-.21.65,1.4,1.4,0,0,1-.58.4v0a1.33,1.33,0,0,1,.67.39,1,1,0,0,1,.27.74,1.28,1.28,0,0,1-.12.56,1.25,1.25,0,0,1-.35.41,1.58,1.58,0,0,1-.5.26A2.11,2.11,0,0,1,113.46,5.19Z"/><path class="cls-2" d="M117.24,5.19a1.31,1.31,0,0,1-1.13-.62,3.17,3.17,0,0,1-.41-1.77,3.12,3.12,0,0,1,.41-1.75,1.33,1.33,0,0,1,1.13-.59,1.29,1.29,0,0,1,1.13.6,3,3,0,0,1,.42,1.74,3.08,3.08,0,0,1-.42,1.77A1.29,1.29,0,0,1,117.24,5.19Zm0-.65a.59.59,0,0,0,.31-.09.79.79,0,0,0,.24-.29,2.51,2.51,0,0,0,.16-.54,6.09,6.09,0,0,0,0-.82,5.77,5.77,0,0,0,0-.8,2.24,2.24,0,0,0-.16-.53.68.68,0,0,0-.24-.28.58.58,0,0,0-.31-.08.52.52,0,0,0-.3.08.68.68,0,0,0-.24.28,1.86,1.86,0,0,0-.16.53,4.42,4.42,0,0,0-.06.8,4.67,4.67,0,0,0,.06.82,2,2,0,0,0,.16.54.79.79,0,0,0,.24.29A.53.53,0,0,0,117.24,4.54Z"/><path class="cls-2" d="M122.08,5.19a1.64,1.64,0,0,1-.83-.2,1.55,1.55,0,0,1-.56-.6l.57-.42a.86.86,0,0,0,.33.37.72.72,0,0,0,.4.12.58.58,0,0,0,.49-.2,1.1,1.1,0,0,0,.17-.7V.42h.83V3.63a2.37,2.37,0,0,1-.08.61,1.34,1.34,0,0,1-.25.49,1.22,1.22,0,0,1-.44.33A1.34,1.34,0,0,1,122.08,5.19Z"/><path class="cls-2" d="M125.43,5.19a1,1,0,0,1-.76-.29,1,1,0,0,1-.28-.74,1,1,0,0,1,.12-.5,1,1,0,0,1,.37-.38,2.58,2.58,0,0,1,.64-.26,6.16,6.16,0,0,1,.94-.17,2,2,0,0,0,0-.26.57.57,0,0,0-.11-.22.43.43,0,0,0-.2-.15.67.67,0,0,0-.3-.05,1.24,1.24,0,0,0-.5.1,2.47,2.47,0,0,0-.49.24l-.3-.55a3.36,3.36,0,0,1,.66-.32A2.09,2.09,0,0,1,126,1.5a1.19,1.19,0,0,1,1,.39A1.71,1.71,0,0,1,127.28,3V5.1h-.68l-.06-.39h0a2.1,2.1,0,0,1-.5.34A1.27,1.27,0,0,1,125.43,5.19Zm.26-.65a.76.76,0,0,0,.39-.1,2.61,2.61,0,0,0,.38-.28V3.37a3.61,3.61,0,0,0-.6.11,1.74,1.74,0,0,0-.4.16.53.53,0,0,0-.21.21.4.4,0,0,0-.07.24.4.4,0,0,0,.14.34A.56.56,0,0,0,125.69,4.54Z"/><path class="cls-2" d="M128.27,5.1v-5h.82v1.3l0,.68a3,3,0,0,1,.49-.37,1.19,1.19,0,0,1,.64-.16.94.94,0,0,1,.82.36,1.79,1.79,0,0,1,.26,1V5.1h-.83V3a1,1,0,0,0-.13-.61.47.47,0,0,0-.42-.18.67.67,0,0,0-.4.11,2.42,2.42,0,0,0-.4.32V5.1Z"/><path class="cls-2" d="M132.26,5.1V1.59h.68l.06.62h0a1.4,1.4,0,0,1,.45-.53A1,1,0,0,1,134,1.5a.9.9,0,0,1,.4.07l-.14.72-.17,0h-.19a.75.75,0,0,0-.44.16,1.33,1.33,0,0,0-.4.56V5.1Z"/><path class="cls-2" d="M136.36,5.19a1.91,1.91,0,0,1-.68-.13,1.54,1.54,0,0,1-.55-.36,1.65,1.65,0,0,1-.37-.58,2,2,0,0,1-.13-.77,2.13,2.13,0,0,1,.14-.78,1.78,1.78,0,0,1,.36-.58,1.57,1.57,0,0,1,.52-.36,1.38,1.38,0,0,1,.6-.13,1.54,1.54,0,0,1,.63.12,1.28,1.28,0,0,1,.45.34,1.58,1.58,0,0,1,.28.53,2.43,2.43,0,0,1,.09.68,1.77,1.77,0,0,1,0,.23c0,.07,0,.13,0,.17h-2.24a1.09,1.09,0,0,0,.34.72,1,1,0,0,0,.7.26,1.21,1.21,0,0,0,.43-.07,1.75,1.75,0,0,0,.39-.19l.28.52a2.63,2.63,0,0,1-.56.27A2,2,0,0,1,136.36,5.19ZM135.43,3H137a1,1,0,0,0-.18-.64.63.63,0,0,0-.54-.23.77.77,0,0,0-.55.22A1,1,0,0,0,135.43,3Z"/></svg>